HIERARCHY
ROOT Hips
{
	OFFSET 0.00000 0.00000 0.00000
	CHANNELS 6 Xposition Yposition Zposition Zrotation Yrotation Xrotation 
	JOINT LHipJoint
	{
		OFFSET 0 0 0
		CHANNELS 3 Zrotation Yrotation Xrotation
		JOINT LeftHip
		{
			OFFSET 1.58895 -1.83665 0.71753
			CHANNELS 3 Zrotation Yrotation Xrotation
			JOINT LeftKnee
			{
				OFFSET 2.50528 -6.88321 0.00000
				CHANNELS 3 Zrotation Yrotation Xrotation
				JOINT LeftAnkle
				{
					OFFSET 2.63244 -7.23257 0.00000
					CHANNELS 3 Zrotation Yrotation Xrotation
					JOINT LeftToe
					{
						OFFSET 0.23691 -0.65090 1.72750
						CHANNELS 3 Zrotation Yrotation Xrotation
						End Site
						{
							OFFSET 0.00000 -0.00000 0.92561
						}
					}
				}
			}
		}
	}
	JOINT RHipJoint
	{
		OFFSET 0 0 0
		CHANNELS 3 Zrotation Yrotation Xrotation
		JOINT RightHip
		{
			OFFSET -1.51435 -1.83665 0.71753
			CHANNELS 3 Zrotation Yrotation Xrotation
			JOINT RightKnee
			{
				OFFSET -2.54551 -6.99375 0.00000
				CHANNELS 3 Zrotation Yrotation Xrotation
				JOINT RightAnkle
				{
					OFFSET -2.66027 -7.30903 0.00000
					CHANNELS 3 Zrotation Yrotation Xrotation
					JOINT RightToe
					{
						OFFSET -0.22981 -0.63138 2.03959
						CHANNELS 3 Zrotation Yrotation Xrotation
						End Site
						{
							OFFSET -0.00000 -0.00000 1.07060
						}
					}
				}
			}
		}
	}
	JOINT lowerback
	{
		OFFSET 0 0 0
		CHANNELS 3 Zrotation Yrotation Xrotation
		JOINT Chest
		{
			OFFSET -0.02651 1.86275 -0.11152
			CHANNELS 3 Zrotation Yrotation Xrotation
			JOINT Chest2
			{
				OFFSET 0.01019 1.86224 0.04087
				CHANNELS 3 Zrotation Yrotation Xrotation
				JOINT lowerneck
				{
					OFFSET 0 0 0
					CHANNELS 3 Zrotation Yrotation Xrotation
					JOINT Neck
					{
						OFFSET -0.01926 1.80512 0.08867
						CHANNELS 3 Zrotation Yrotation Xrotation
						JOINT Head
						{
							OFFSET 0.05516 1.76451 -0.38475
							CHANNELS 3 Zrotation Yrotation Xrotation
							End Site
							{
								OFFSET 0.01592 1.82587 -0.14001
							}
						}
					}
				}
				JOINT LeftCollar
				{
					OFFSET 0 0 0
					CHANNELS 3 Zrotation Yrotation Xrotation
					JOINT LeftShoulder
					{
						OFFSET 3.47116 1.51376 0.14491
CHANNELS 3 Zrotation Xrotation Yrotation
						JOINT LeftElbow
						{
OFFSET 0 -4.780950 0.000000
CHANNELS 3 Zrotation Xrotation Yrotation
							JOINT LeftWrist
							{
OFFSET 0 -3.586150 -0.000000
CHANNELS 3 Zrotation Xrotation Yrotation
								JOINT lhand
								{
									OFFSET 0 0 0
CHANNELS 3 Zrotation Xrotation Yrotation
									JOINT LFingers
									{
OFFSET 0 -0.659810 0.000000
CHANNELS 3 Zrotation Xrotation Yrotation
										End Site
										{
OFFSET 0 -0.531960 0.000000
										}
									}
								}
								JOINT LThumb
								{
OFFSET 0 0.000000 0.000000
CHANNELS 3 Zrotation Xrotation Yrotation
									End Site
									{
OFFSET 0 -0.540080 0.540080
									}
								}
							}
						}
					}
				}
				JOINT RightCollar
				{
					OFFSET 0 0 0
					CHANNELS 3 Zrotation Yrotation Xrotation
					JOINT RightShoulder
					{
						OFFSET -3.31725 1.61216 0.35156
CHANNELS 3 Zrotation Xrotation Yrotation
						JOINT RightElbow
						{
OFFSET 0 -4.489130 0.000000
CHANNELS 3 Zrotation Xrotation Yrotation
							JOINT RightWrist
							{
OFFSET 0 -3.705100 0.000000
CHANNELS 3 Zrotation Xrotation Yrotation
								JOINT rhand
								{
									OFFSET 0 0 0
CHANNELS 3 Zrotation Xrotation Yrotation
									JOINT RFingers
									{
OFFSET 0 -0.449140 0.000000
CHANNELS 3 Zrotation Xrotation Yrotation
										End Site
										{
OFFSET 0 -0.362110 0.000000
										}
									}
								}
								JOINT RThumb
								{
OFFSET 0 0.000000 0.000000
CHANNELS 3 Zrotation Xrotation Yrotation
									End Site
									{
OFFSET 0 -0.367630 0.367630
									}
								}
							}
						}
					}
				}
			}
		}
	}
}
MOTION
Frames: 4
Frame Time: 0.008333333333333333
-0.594300 18.767100 4.561800 -1.178300 -1.395500 4.793100 0.000000 0.000000 0.000000 -13.516000 -9.747400 -5.193300 1.220900 7.008300 19.740100 1.462100 3.306600 -24.239400 8.114300 -16.202600 -52.973200 0.000000 0.000000 0.000000 14.642900 -0.585300 2.360100 0.000000 -0.000000 0.000000 -0.623200 -4.406700 -17.164900 -0.037200 1.245600 -3.424800 -2.063100 0.247000 -2.755900 0.872400 0.369400 -2.816500 2.057200 0.228900 -1.363700 -4.005100 -2.531400 -10.783700 5.534500 -3.999200 21.662000 2.115400 -1.653600 8.717700 0.000000 -0.000000 0.000000 -2.912200 12.612900 -18.430500 20.798400 -31.592200 5.944000 2.625500 8.529000 27.201000 0.000000 0.000000 0.000000 -7.125000 0.000000 0.000000 -16.311500 3.669900 -15.903900 0.000000 -0.000000 0.000000 1.566600 19.636500 17.587100 -26.307300 -37.510500 -9.074100 -5.197500 22.193500 38.283700 0.000000 0.000000 0.000000 7.125000 0.000000 -0.000000 37.442400 64.554400 -18.961400
-0.593719 18.767100 4.563349 -1.177041 -1.362966 4.808980 0.000000 0.000000 0.000000 -13.518227 -9.782355 -5.187878 1.219157 7.003652 19.726254 1.461325 3.322577 -24.241143 8.118560 -16.205795 -52.988789 0.000000 0.000000 0.000000 14.638252 -0.618222 2.351095 0.000000 0.000000 0.000000 -0.624943 -4.377264 -17.166159 -0.035844 1.222264 -3.360506 -2.070846 0.237801 -2.767132 0.874724 0.357490 -2.821922 2.063687 0.223187 -1.362441 -3.970145 -2.542245 -10.814007 5.491896 -4.006365 21.574758 2.093130 -1.658635 8.692428 0.000000 0.000000 0.000000 -2.938828 12.548413 -18.439795 20.773999 -31.563636 5.931219 2.676916 8.519801 27.211554 0.000000 0.000000 0.000000 -7.125000 0.000000 0.000000 -16.281580 3.655666 -15.876594 0.000000 0.000000 0.000000 1.540553 19.586537 17.673955 -26.297520 -37.501011 -9.068193 -5.445380 22.218966 38.202268 0.000000 0.000000 0.000000 7.125000 0.000000 0.000000 37.083071 64.559532 -18.759417
-0.593419 18.767006 4.565086 -1.205940 -1.343824 4.822237 0.000000 0.000000 0.000000 -13.491233 -9.857020 -5.163818 1.218163 7.000878 19.718027 1.465702 3.352789 -24.289246 8.099781 -16.192133 -52.921306 0.000000 0.000000 0.000000 14.673315 -0.633723 2.342277 0.000000 0.000000 0.000000 -0.622659 -4.401962 -17.156085 -0.042356 1.328643 -3.653417 -2.051151 0.237032 -2.758228 0.888942 0.356070 -2.842611 2.067178 0.222813 -1.388530 -3.987450 -2.546440 -10.801701 5.520564 -4.012875 21.518797 2.104763 -1.660860 8.672401 0.000000 0.000000 0.000000 -2.964893 12.521013 -18.505940 20.794273 -31.587425 5.941851 2.721775 8.429496 27.118244 0.000000 0.000000 0.000000 -7.125000 0.000000 0.000000 -16.255968 3.741645 -15.822503 0.000000 0.000000 0.000000 1.537359 19.546688 17.675114 -26.298230 -37.501730 -9.068562 -5.629199 22.315610 38.164198 0.000000 0.000000 0.000000 7.125000 0.000000 0.000000 36.846619 64.580773 -18.641911
-0.593219 18.766367 4.567372 -1.230792 -1.343867 4.814956 0.000000 0.000000 0.000000 -13.474199 -9.921177 -5.118949 1.217919 7.000338 19.716233 1.472696 3.378145 -24.355025 8.076603 -16.175275 -52.838069 0.000000 0.000000 0.000000 14.703841 -0.633162 2.349663 0.000000 0.000000 0.000000 -0.619152 -4.448399 -17.146894 -0.049767 1.439504 -3.959058 -2.025912 0.239534 -2.724121 0.899944 0.358353 -2.879560 2.064052 0.224610 -1.445676 -4.037471 -2.546067 -10.777093 5.560875 -4.014024 21.553203 2.127316 -1.661543 8.681415 0.000000 0.000000 0.000000 -2.975286 12.551060 -18.609480 20.850986 -31.654068 5.971555 2.708232 8.286407 27.019425 0.000000 0.000000 0.000000 -7.125000 0.000000 0.000000 -16.264253 3.837532 -15.801256 0.000000 0.000000 0.000000 1.551677 19.559211 17.641973 -26.332593 -37.535279 -9.089502 -5.730589 22.426519 38.192022 0.000000 0.000000 0.000000 7.125000 0.000000 0.000000 36.781815 64.630609 -18.646887
